<?xml version="1.0" encoding="UTF-8"?>
<svg width="290px" height="52px" viewBox="0 0 290 52" version="1.1" xmlns="http://www.w3.org/2000/svg" xmlns:xlink="http://www.w3.org/1999/xlink">
    <!-- Generator: Sketch 42 (36781) - http://www.bohemiancoding.com/sketch -->
    <title>meanwise</title>
    <desc>Created with Sketch.</desc>
    <defs></defs>
    <g id="Page-1" stroke="none" stroke-width="1" fill="none" fill-rule="evenodd">
        <path d="M40.15,16.42 C42.3433443,16.42 44.2216589,16.8049961 45.785,17.575 C47.3483412,18.3450039 48.6316617,19.3599937 49.635,20.62 C50.6383384,21.8800063 51.373331,23.3266585 51.84,24.96 C52.306669,26.5933415 52.54,28.2733247 52.54,30 L52.54,51 L44.14,51 L44.14,32.38 C44.14,31.3999951 44.0700007,30.3733387 43.93,29.3 C43.7899993,28.2266613 43.486669,27.2583376 43.02,26.395 C42.553331,25.5316623 41.9116708,24.8200028 41.095,24.26 C40.2783293,23.6999972 39.1933401,23.42 37.84,23.42 C36.5333268,23.42 35.413338,23.6999972 34.48,24.26 C33.546662,24.8200028 32.7766697,25.5433289 32.17,26.43 C31.5633303,27.3166711 31.1200014,28.3083279 30.84,29.405 C30.5599986,30.5016721 30.42,31.5866613 30.42,32.66 L30.42,51 L22.02,51 L22.02,30.7 C22.02,28.5999895 21.5183384,26.8616736 20.515,25.485 C19.5116617,24.1083264 17.9366774,23.42 15.79,23.42 C14.5299937,23.42 13.433338,23.6883307 12.5,24.225 C11.566662,24.7616694 10.8083362,25.4499958 10.225,26.29 C9.64166375,27.1300042 9.19833485,28.0983279 8.895,29.195 C8.59166515,30.2916722 8.44,31.3999944 8.44,32.52 L8.44,51 L0.04,51 L0.04,17.4 L8.02,17.4 L8.02,22.79 L8.16,22.79 C8.5333352,21.9499958 9.03499685,21.1566704 9.665,20.41 C10.2950032,19.6633296 11.0416624,18.9866697 11.905,18.38 C12.7683376,17.7733303 13.7599944,17.2950017 14.88,16.945 C16.0000056,16.5949983 17.2366599,16.42 18.59,16.42 C21.2033464,16.42 23.3733247,17.0033275 25.1,18.17 C26.8266753,19.3366725 28.156662,20.8766571 29.09,22.79 C30.2100056,20.7366564 31.703324,19.1616722 33.57,18.065 C35.436676,16.9683278 37.6299874,16.42 40.15,16.42 Z M81.744576,30.84 C81.744576,29.7666613 81.5929108,28.7400049 81.289576,27.76 C80.9862411,26.7799951 80.5079126,25.9166704 79.854576,25.17 C79.2012394,24.4233296 78.3729143,23.8283356 77.369576,23.385 C76.3662376,22.9416645 75.1879161,22.72 73.834576,22.72 C71.3145634,22.72 69.1795847,23.4783258 67.429576,24.995 C65.6795672,26.5116743 64.7112436,28.4599881 64.524576,30.84 L81.744576,30.84 Z M90.144576,34.62 L90.144576,35.74 C90.144576,36.1133352 90.1212429,36.4866648 90.074576,36.86 L64.524576,36.86 C64.6179098,38.0733394 64.9329066,39.1816616 65.469576,40.185 C66.0062453,41.1883384 66.7179049,42.0516631 67.604576,42.775 C68.4912471,43.498337 69.4945704,44.0699979 70.614576,44.49 C71.7345816,44.9100021 72.9012366,45.12 74.114576,45.12 C76.2145865,45.12 77.9879021,44.7350038 79.434576,43.965 C80.8812499,43.1949962 82.071238,42.1333401 83.004576,40.78 L88.604576,45.26 C85.2912261,49.7400224 80.4846075,51.98 74.184576,51.98 C71.5712296,51.98 69.1679203,51.5716708 66.974576,50.755 C64.7812317,49.9383293 62.879584,48.7833408 61.269576,47.29 C59.6595679,45.7966592 58.3995805,43.9650108 57.489576,41.795 C56.5795714,39.6249892 56.124576,37.1633471 56.124576,34.41 C56.124576,31.7033198 56.5795714,29.2416778 57.489576,27.025 C58.3995805,24.8083223 59.6479014,22.9183412 61.234576,21.355 C62.8212506,19.7916588 64.6995651,18.5783376 66.869576,17.715 C69.0395868,16.8516623 71.3845634,16.42 73.904576,16.42 C76.237921,16.42 78.3962327,16.8049961 80.379576,17.575 C82.3629192,18.3450039 84.0779021,19.4883258 85.524576,21.005 C86.9712499,22.5216742 88.1029052,24.4116553 88.919576,26.675 C89.7362467,28.9383446 90.144576,31.5866515 90.144576,34.62 Z M114.449152,46.73 L114.239152,46.73 C113.399148,48.2233408 112.045828,49.4483285 110.179152,50.405 C108.312476,51.3616715 106.189164,51.84 103.809152,51.84 C102.455812,51.84 101.044159,51.6650017 99.574152,51.315 C98.1041446,50.9649983 96.7508248,50.3816708 95.514152,49.565 C94.2774791,48.7483292 93.2508227,47.6750067 92.434152,46.345 C91.6174812,45.0149933 91.209152,43.3700098 91.209152,41.41 C91.209152,38.8899874 91.9208115,36.8833408 93.344152,35.39 C94.7674924,33.8966592 96.5991408,32.7533373 98.839152,31.96 C101.079163,31.1666627 103.564138,30.6416679 106.294152,30.385 C109.024166,30.128332 111.695806,30 114.309152,30 L114.309152,29.16 C114.309152,27.0599895 113.550826,25.5083384 112.034152,24.505 C110.517478,23.5016617 108.709162,23 106.609152,23 C104.83581,23 103.132493,23.3733296 101.499152,24.12 C99.8658105,24.8666704 98.5124907,25.7766613 97.439152,26.85 L93.099152,21.74 C95.0124949,19.9666578 97.2174728,18.6366711 99.714152,17.75 C102.210831,16.8633289 104.742472,16.42 107.309152,16.42 C110.295834,16.42 112.757476,16.8399958 114.694152,17.68 C116.630828,18.5200042 118.159146,19.6166599 119.279152,20.97 C120.399158,22.3233401 121.180816,23.8399916 121.624152,25.52 C122.067488,27.2000084 122.289152,28.8799916 122.289152,30.56 L122.289152,51 L114.449152,51 L114.449152,46.73 Z M114.309152,35.67 L112.419152,35.67 C111.065812,35.67 109.642493,35.7283327 108.149152,35.845 C106.655811,35.9616673 105.279158,36.2183313 104.019152,36.615 C102.759146,37.0116686 101.709156,37.571663 100.869152,38.295 C100.029148,39.0183369 99.609152,40.0099937 99.609152,41.27 C99.609152,42.0633373 99.7841502,42.7283307 100.134152,43.265 C100.484154,43.8016693 100.939149,44.2333317 101.499152,44.56 C102.059155,44.8866683 102.689148,45.1199993 103.389152,45.26 C104.089155,45.4000007 104.789148,45.47 105.489152,45.47 C108.3825,45.47 110.575811,44.7000077 112.069152,43.16 C113.562493,41.6199923 114.309152,39.5200133 114.309152,36.86 L114.309152,35.67 Z M127.833728,17.4 L135.813728,17.4 L135.813728,22.79 L135.953728,22.79 C136.700398,21.1099916 137.995385,19.6283398 139.838728,18.345 C141.68207,17.0616602 143.863715,16.42 146.383728,16.42 C148.577072,16.42 150.455387,16.8049961 152.018728,17.575 C153.582069,18.3450039 154.86539,19.3599937 155.868728,20.62 C156.872066,21.8800063 157.607059,23.3266585 158.073728,24.96 C158.540397,26.5933415 158.773728,28.2733247 158.773728,30 L158.773728,51 L150.373728,51 L150.373728,32.38 C150.373728,31.3999951 150.303729,30.3733387 150.163728,29.3 C150.023727,28.2266613 149.720397,27.2583376 149.253728,26.395 C148.787059,25.5316623 148.145399,24.8200028 147.328728,24.26 C146.512057,23.6999972 145.427068,23.42 144.073728,23.42 C142.720388,23.42 141.553733,23.6883307 140.573728,24.225 C139.593723,24.7616694 138.788731,25.4499958 138.158728,26.29 C137.528725,27.1300042 137.050396,28.0983279 136.723728,29.195 C136.39706,30.2916722 136.233728,31.3999944 136.233728,32.52 L136.233728,51 L127.833728,51 L127.833728,17.4 Z M159.558304,17.4 L168.658304,17.4 L175.658304,41.48 L175.798304,41.48 L183.008304,17.4 L191.968304,17.4 L199.248304,41.48 L199.388304,41.48 L206.528304,17.4 L215.278304,17.4 L203.658304,51 L195.118304,51 L187.488304,27.48 L187.348304,27.48 L179.788304,51 L171.248304,51 L159.558304,17.4 Z M216.48288,17.4 L224.88288,17.4 L224.88288,51 L216.48288,51 L216.48288,17.4 Z M215.29288,5.99 C215.29288,4.6366599 215.794542,3.45833835 216.79788,2.455 C217.801218,1.45166165 219.072872,0.95 220.61288,0.95 C222.152888,0.95 223.447875,1.42832855 224.49788,2.385 C225.547885,3.34167145 226.07288,4.5433261 226.07288,5.99 C226.07288,7.4366739 225.547885,8.63832855 224.49788,9.595 C223.447875,10.5516715 222.152888,11.03 220.61288,11.03 C219.072872,11.03 217.801218,10.5283384 216.79788,9.525 C215.794542,8.52166165 215.29288,7.3433401 215.29288,5.99 Z M249.257456,26.36 C248.510785,25.3799951 247.484129,24.5283369 246.177456,23.805 C244.870783,23.081663 243.447464,22.72 241.907456,22.72 C240.554116,22.72 239.317461,22.9999972 238.197456,23.56 C237.07745,24.1200028 236.517456,25.0533268 236.517456,26.36 C236.517456,27.6666732 237.135783,28.5883306 238.372456,29.125 C239.609129,29.6616694 241.417444,30.2099972 243.797456,30.77 C245.057462,31.0500014 246.329116,31.423331 247.612456,31.89 C248.895796,32.356669 250.062451,32.9749962 251.112456,33.745 C252.162461,34.5150038 253.014119,35.471661 253.667456,36.615 C254.320792,37.758339 254.647456,39.1466585 254.647456,40.78 C254.647456,42.8333436 254.26246,44.5716595 253.492456,45.995 C252.722452,47.4183405 251.695796,48.5733289 250.412456,49.46 C249.129116,50.3466711 247.635798,50.9883314 245.932456,51.385 C244.229114,51.7816687 242.467465,51.98 240.647456,51.98 C238.034109,51.98 235.490802,51.5016715 233.017456,50.545 C230.54411,49.5883285 228.490797,48.2233422 226.857456,46.45 L232.387456,41.27 C233.320794,42.4833394 234.534115,43.4866627 236.027456,44.28 C237.520797,45.0733373 239.177447,45.47 240.997456,45.47 C241.604126,45.47 242.222453,45.4000007 242.852456,45.26 C243.482459,45.1199993 244.065787,44.8983348 244.602456,44.595 C245.139125,44.2916652 245.570788,43.8833359 245.897456,43.37 C246.224124,42.8566641 246.387456,42.2266704 246.387456,41.48 C246.387456,40.079993 245.745796,39.0766697 244.462456,38.47 C243.179116,37.8633303 241.254135,37.2566697 238.687456,36.65 C237.42745,36.3699986 236.202462,36.0083355 235.012456,35.565 C233.82245,35.1216644 232.760794,34.538337 231.827456,33.815 C230.894118,33.091663 230.147459,32.1933387 229.587456,31.12 C229.027453,30.0466613 228.747456,28.7166746 228.747456,27.13 C228.747456,25.263324 229.132452,23.6533401 229.902456,22.3 C230.67246,20.9466599 231.68745,19.8383376 232.947456,18.975 C234.207462,18.1116624 235.630781,17.4700021 237.217456,17.05 C238.80413,16.6299979 240.437447,16.42 242.117456,16.42 C244.544135,16.42 246.912444,16.8399958 249.222456,17.68 C251.532467,18.5200042 253.364116,19.8033247 254.717456,21.53 L249.257456,26.36 Z M281.332032,30.84 C281.332032,29.7666613 281.180367,28.7400049 280.877032,27.76 C280.573697,26.7799951 280.095368,25.9166704 279.442032,25.17 C278.788695,24.4233296 277.96037,23.8283356 276.957032,23.385 C275.953693,22.9416645 274.775372,22.72 273.422032,22.72 C270.902019,22.72 268.767041,23.4783258 267.017032,24.995 C265.267023,26.5116743 264.298699,28.4599881 264.112032,30.84 L281.332032,30.84 Z M289.732032,34.62 L289.732032,35.74 C289.732032,36.1133352 289.708699,36.4866648 289.662032,36.86 L264.112032,36.86 C264.205366,38.0733394 264.520362,39.1816616 265.057032,40.185 C265.593701,41.1883384 266.305361,42.0516631 267.192032,42.775 C268.078703,43.498337 269.082026,44.0699979 270.202032,44.49 C271.322037,44.9100021 272.488692,45.12 273.702032,45.12 C275.802042,45.12 277.575358,44.7350038 279.022032,43.965 C280.468706,43.1949962 281.658694,42.1333401 282.592032,40.78 L288.192032,45.26 C284.878682,49.7400224 280.072063,51.98 273.772032,51.98 C271.158685,51.98 268.755376,51.5716708 266.562032,50.755 C264.368688,49.9383293 262.46704,48.7833408 260.857032,47.29 C259.247024,45.7966592 257.987036,43.9650108 257.077032,41.795 C256.167027,39.6249892 255.712032,37.1633471 255.712032,34.41 C255.712032,31.7033198 256.167027,29.2416778 257.077032,27.025 C257.987036,24.8083223 259.235357,22.9183412 260.822032,21.355 C262.408706,19.7916588 264.287021,18.5783376 266.457032,17.715 C268.627043,16.8516623 270.972019,16.42 273.492032,16.42 C275.825377,16.42 277.983689,16.8049961 279.967032,17.575 C281.950375,18.3450039 283.665358,19.4883258 285.112032,21.005 C286.558706,22.5216742 287.690361,24.4116553 288.507032,26.675 C289.323703,28.9383446 289.732032,31.5866515 289.732032,34.62 Z" id="meanwise" fill="#FFFFFF"></path>
    </g>
</svg>