<?xml version="1.0" encoding="UTF-8"?>
<svg width="77px" height="64px" viewBox="0 0 77 64" version="1.1" xmlns="http://www.w3.org/2000/svg" xmlns:xlink="http://www.w3.org/1999/xlink">
    <!-- Generator: Sketch 42 (36781) - http://www.bohemiancoding.com/sketch -->
    <title>mean</title>
    <desc>Created with Sketch.</desc>
    <defs></defs>
    <g id="Page-1" stroke="none" stroke-width="1" fill="none" fill-rule="evenodd">
        <g id="Artboard" transform="translate(-114.000000, -129.000000)">
            <g id="mean" transform="translate(114.000000, 129.000000)">
                <g id="Layer_1">
                    <g id="Group">
                        <g transform="translate(20.595489, 18.258258)" id="Shape">
                            <path d="M7.97834586,0.117429429 C5.62872782,5.25472673 4.0611609,10.7385465 3.3372391,16.3257658 L3.29893534,16.32 C2.40851729,14.0698138 1.33620451,12.04603 0.0229052632,10.0510751 C2.05223459,6.27334535 4.75890526,2.91075075 7.97834586,0.117429429 L7.97834586,0.117429429 Z" fill-opacity="0.750792572" fill="#FFFFFF"></path>
                            <path d="M3.29893534,16.32 L0.0229052632,10.0510751 C1.33601203,12.04603 2.40851729,14.0698138 3.29893534,16.32 L3.29893534,16.32 Z" fill="#00ACC1"></path>
                        </g>
                        <path d="M57.2227368,18.3872192 C62.9201805,24.6198198 66.3929263,32.9023423 66.3929263,41.9928408 C66.3929263,47.7036396 65.0220752,53.0957838 62.5902677,57.8608048" id="Shape" fill-opacity="0.750792572" fill="#FFFFFF"></path>
                        <path d="M47.8329263,20.2038198 C46.2846075,23.0405766 45.0057624,26.0506907 44.0098647,29.1643964 L44.0495158,29.1770811 L46.4946045,38.4146066 C47.0300872,30.0046607 49.3966436,22.0936456 53.2095038,15.074979 C50.9659429,16.2598438 49.0979128,18.0105225 47.8329263,20.2038198 L47.8329263,20.2038198 Z" id="Shape" fill-opacity="0.750792572" fill="#FFFFFF"></path>
                        <path d="M68.3806797,0.0812972973 C66.1353865,0.0812972973 64.629991,0.404372372 63.1328722,1.84792793 C63.0283549,1.95017417 62.9259549,2.05511111 62.8208602,2.16004805 C59.9913865,5.00891291 57.4654556,8.15721321 55.2927278,11.5474835 C54.9864902,11.0906426 54.6654316,10.6364925 54.3424481,10.1925285 C53.3733053,8.85640841 51.6935218,6.61967568 50.565582,5.30584985 C49.0199579,3.26227027 46.5991218,1.96381982 43.8797474,1.96381982 C41.5461053,1.96381982 39.2380632,2.9021021 37.728818,4.44482883 C34.9901955,7.46397598 32.6207519,10.7785225 30.6443549,14.3029429 C29.0369444,12.3725646 26.9481383,9.86714715 25.2897203,8.41821021 C24.724018,7.92639039 23.4241925,7.21451051 22.7824602,6.98541742 C21.8271759,6.6412012 20.725991,6.53318919 19.6492511,6.53318919 C18.4649143,6.53318919 17.3442887,6.78073273 16.332415,7.2246967 C15.3178466,7.67115916 14.4101053,8.31077477 13.6534617,9.10318318 C3.06757293,21.5881802 -1.92404211,38.7015495 0.783783459,54.9638919 C0.819007519,55.172997 0.856733835,55.3828709 0.891380451,55.5925526 C0.952974436,55.8126126 1.01841805,56.0197958 1.09637293,56.2271712 C2.28590677,59.3612492 5.34481805,61.5902943 8.90129323,61.5902943 C13.4944722,61.5902943 17.2209083,57.8713754 17.2209083,53.2833634 C17.2209083,52.809994 17.1854917,52.4229189 17.110809,51.9708829 C16.6419248,49.7531772 16.4669594,47.3284805 16.4669594,44.8417057 C16.4669594,38.8660661 17.9692752,33.2365646 20.6187789,28.3091411 C22.6481083,24.5314114 25.3545865,21.1688168 28.5742195,18.3754955 C26.2246015,23.5127928 24.6570346,28.9966126 23.9331128,34.5838318 C22.8665744,42.7775616 23.6072421,51.1946186 26.3343158,59.0766126 C26.2881203,58.9686006 26.2432722,58.8590511 26.1970767,58.751039 C27.6884211,62.6490811 32.3008481,64.8295015 36.2665383,63.6519399 C38.4631338,63.0013694 40.3427128,61.4075195 41.3605534,59.3587508 C42.5400782,56.979988 42.1543459,54.3427267 41.840409,51.8098258 C40.903218,44.3126006 41.6835368,36.4546306 44.0100571,29.1642042 C45.0061474,26.0504985 46.2848,23.0403844 47.8331188,20.2036276 C49.0981053,18.0103303 50.9661353,16.2596517 53.2096962,15.0747868 C53.2333714,15.0607568 52.8780511,15.069021 52.8676571,15.0747868 C49.0546045,22.0938378 46.3879699,30.0048529 45.8105263,38.4147988 C45.8105263,39.626955 46.0397714,40.8391111 46.0397714,42.0601081 C46.0397714,45.4073273 46.3573654,48.6867027 46.914791,51.8778619 C47.1120842,53.0067988 47.4639398,54.2892973 47.7176301,55.394018 C48.7724271,58.7731411 51.972812,61.0527327 55.7050226,61.0527327 C59.7894737,61.0527327 63.5366977,58.1788829 64.2400241,54.3027508 C64.4746586,51.8778619 64.2536902,49.6812973 64.2536902,47.4503303 C64.2536902,34.3852973 68.3083068,22.6067988 75.7573293,13.0156396 C76.7156932,11.7381381 76.7218526,10.1014294 76.7218526,8.388997 C76.7218526,3.79963964 72.9769383,0.0812972973 68.3806797,0.0812972973 Z" id="Shape" fill="#FFFFFF"></path>
                    </g>
                </g>
            </g>
        </g>
    </g>
</svg>